<?xml version="1.0" encoding="UTF-8"?>
<svg xmlns="http://www.w3.org/2000/svg" fill="none" height="56" viewBox="0 0 57 56" width="57">
<path d="M7.40029 54.0274C4.23719 53.3527 2.5863 51.4865 2.00781 48.7295C0.82545 43.892 0 36.1612 0 28C0 19.8388 0.82545 12.108 2.00781 7.27046C2.5846 4.48691 4.2355 2.64894 7.40029 1.94599C12.5441 0.70295 20.1643 0 28.5 0C36.8357 0 44.4559 0.70295 49.5997 1.94599C52.7628 2.64894 54.4137 4.48691 54.9922 7.27046C56.1745 12.108 57 19.8106 57 28C57 36.1894 56.1745 43.892 54.9922 48.7295C54.4154 51.4865 52.7645 53.3511 49.5997 54.0274C44.4559 55.297 36.8357 56 28.5 56C20.1643 56 12.5441 55.297 7.40029 54.0274Z" fill="#FF6200"/>
<path d="M48.0333 28.0266V24.4603L41.0728 25.6768V28.0266H48.0333Z" fill="white"/>
<path d="M42.7779 44.2974C44.5116 44.2974 45.694 43.6759 46.6294 42.4329L46.6835 43.9468H50.6991V29.9194H46.5178V38.1903C46.5178 39.8936 45.6652 40.9738 44.263 40.9738C42.8607 40.9738 42.1452 40.0548 42.1452 38.3515V29.9194H37.9639V39.0278C37.9639 42.2434 39.8347 44.2974 42.7779 44.2974Z" fill="white"/>
<path d="M14.1679 33.1084V39.1092C14.1679 42.5143 15.9846 44.2177 19.2018 44.2177C20.3571 44.2177 21.3196 44.0814 21.7881 43.9468V40.8126C21.4853 40.894 20.9356 40.9738 20.303 40.9738C18.9549 40.9738 18.3493 40.3257 18.3493 38.8384V33.1084H21.9809V29.9194H18.3493V25.6751L14.1679 26.4046V29.9194H12.0773V33.1084H14.1679Z" fill="white"/>
<path d="M10.4822 29.9194H6.3008V43.9468H10.4822V29.9194Z" fill="white"/>
<path d="M8.3898 28.4603C9.84787 28.4603 10.8661 27.4882 10.8661 26.1088C10.8661 24.7295 9.84787 23.7574 8.3898 23.7574C6.93173 23.7574 5.91345 24.7312 5.91345 26.1088C5.91345 27.4865 6.93173 28.4603 8.3898 28.4603Z" fill="white"/>
<path d="M29.5453 29.5687C27.4546 29.5687 25.7225 29.8928 24.0429 30.5143V33.8114C25.6938 33.1899 27.343 32.811 28.8839 32.811C30.8088 32.811 31.8829 33.6751 31.8829 35.189C31.5531 35.1624 31.0034 35.1358 30.479 35.1358C26.0777 35.1358 23.2986 36.919 23.2986 39.9734C23.2986 42.6223 25.1965 44.2974 28.1955 44.2974C29.8735 44.2974 31.0846 43.6211 31.9371 42.4861L31.9929 43.9451H35.8986V35.7025C35.8986 31.7025 33.615 29.5671 29.5436 29.5671L29.5453 29.5687ZM31.9117 38.8384C31.9117 40.3257 30.8934 41.3527 29.4354 41.3527C28.1431 41.3527 27.3447 40.786 27.3447 39.6493C27.3447 38.3515 28.6099 37.6751 30.8664 37.6751C31.1962 37.6751 31.7189 37.7033 31.9117 37.7299V38.8384Z" fill="white"/>
</svg>